<?xml version="1.0" encoding="UTF-8" standalone="no"?>
<svg
   xmlns:dc="http://purl.org/dc/elements/1.1/"
   xmlns:cc="http://creativecommons.org/ns#"
   xmlns:rdf="http://www.w3.org/1999/02/22-rdf-syntax-ns#"
   xmlns:svg="http://www.w3.org/2000/svg"
   xmlns="http://www.w3.org/2000/svg"
   xmlns:sodipodi="http://sodipodi.sourceforge.net/DTD/sodipodi-0.dtd"
   xmlns:inkscape="http://www.inkscape.org/namespaces/inkscape"
   width="438.394"
   height="82.8305"
   id="svg2"
   sodipodi:version="0.32"
   inkscape:version="0.46"
   sodipodi:docname="losreyes.svg"
   inkscape:output_extension="org.inkscape.output.svg.inkscape">
  <metadata
     id="metadata65">
    <rdf:RDF>
      <cc:Work
         rdf:about="">
        <dc:format>image/svg+xml</dc:format>
        <dc:type
           rdf:resource="http://purl.org/dc/dcmitype/StillImage" />
      </cc:Work>
    </rdf:RDF>
  </metadata>
  <sodipodi:namedview
     inkscape:window-height="975"
     inkscape:window-width="1680"
     inkscape:pageshadow="2"
     inkscape:pageopacity="0.0"
     guidetolerance="10.0"
     gridtolerance="10.0"
     objecttolerance="10.0"
     borderopacity="1.0"
     bordercolor="#666666"
     pagecolor="#ffffff"
     id="base"
     showgrid="false"
     inkscape:zoom="1.2408929"
     inkscape:cx="186.83905"
     inkscape:cy="-307.11086"
     inkscape:window-x="0"
     inkscape:window-y="25"
     inkscape:current-layer="svg2" />
  <defs
     id="defs4">
    <inkscape:perspective
       sodipodi:type="inkscape:persp3d"
       inkscape:vp_x="0 : 41.415249 : 1"
       inkscape:vp_y="0 : 1000 : 0"
       inkscape:vp_z="438.39401 : 41.415249 : 1"
       inkscape:persp3d-origin="219.19701 : 27.610166 : 1"
       id="perspective67" />
    <marker
       id="ArrowEnd"
       viewBox="0 0 10 10"
       refX="0"
       refY="5"
       markerUnits="strokeWidth"
       markerWidth="4"
       markerHeight="3"
       orient="auto">
      <path
         d="M 0 0 L 10 5 L 0 10 z"
         id="path7" />
    </marker>
    <marker
       id="ArrowStart"
       viewBox="0 0 10 10"
       refX="10"
       refY="5"
       markerUnits="strokeWidth"
       markerWidth="4"
       markerHeight="3"
       orient="auto">
      <path
         d="M 10 0 L 0 5 L 10 10 z"
         id="path10" />
    </marker>
    <inkscape:perspective
       id="perspective2447"
       inkscape:persp3d-origin="372.04724 : 350.78739 : 1"
       inkscape:vp_z="744.09448 : 526.18109 : 1"
       inkscape:vp_y="0 : 1000 : 0"
       inkscape:vp_x="0 : 526.18109 : 1"
       sodipodi:type="inkscape:persp3d" />
  </defs>
  <g
     id="g12"
     style="fill:#800080"
     inkscape:export-xdpi="90"
     inkscape:export-ydpi="90">
    <g
       id="g14"
       style="fill:#800080">
      <g
         id="g16"
         style="fill:#800080">
        <g
           id="g18"
           style="fill:#800080">
          <path
             style="stroke:#000000;stroke-width:0.21602700000000000;fill:#800080"
             d="M 417.226 30.8842C 417.226 33.0086 418.642 35.5495 421.392 38.5903L 424.099 41.5894C 426.265 43.9221 427.348 45.7132 427.348 46.9628C 427.348 48.0459 426.848 48.9623 425.807 49.7121C 424.807 50.5035 423.558 50.8784 422.016 50.8784C 419.475 50.8784 416.81 49.9204 414.06 48.0043L 409.562 52.9196C 412.936 54.3358 415.935 55.0439 418.601 55.0439C 422.35 55.0439 425.724 53.9609 428.681 51.7532C 431.639 49.5871 433.097 47.0462 433.097 44.172C 433.097 42.0892 431.722 39.465 428.931 36.341L 426.432 33.6333C 424.266 31.1341 423.183 29.1763 423.183 27.7601C 423.183 25.0525 424.891 23.6778 428.39 23.6778C 431.43 23.6778 432.972 24.8442 432.972 27.1352C 432.972 27.3018 432.93 27.5101 432.888 27.7601L 432.805 28.8431L 435.804 28.8431L 437.262 21.2618C 434.638 20.3454 432.388 19.9289 430.514 19.9289C 427.057 19.9289 424.016 21.012 421.308 23.2613C 418.601 25.4273 417.226 27.9684 417.226 30.8842z"
             id="path20" />
          <path
             style="stroke:#000000;stroke-width:0.21602700000000000;fill:#800080"
             d="M 406.562 48.1709L 407.062 44.8801C 401.231 48.5458 396.482 50.3369 392.9 50.3369C 389.109 50.3369 387.193 47.5043 387.193 41.7977L 387.193 41.506C 392.358 41.506 396.982 40.0899 400.981 37.2157C 405.063 34.3831 407.062 30.9258 407.062 26.9269C 407.062 24.8858 406.479 23.178 405.271 21.8867C 404.022 20.5537 402.439 19.8456 400.481 19.8456C 395.399 19.8456 390.65 22.4282 386.235 27.5101C 381.819 32.5503 379.57 37.9655 379.57 43.7554C 379.57 47.0879 380.528 49.7954 382.403 51.8781C 384.277 54.0026 386.735 55.0439 389.776 55.0439C 394.358 55.0439 399.939 52.7528 406.562 48.1709zM 391.108 28.6765L 391.108 28.6765C 393.191 25.6356 395.357 24.0944 397.565 24.0944C 399.356 24.0944 400.273 25.4273 400.273 28.0516C 400.273 30.9675 399.065 33.3418 396.649 35.2163C 394.274 37.0491 391.15 38.1321 387.276 38.4654C 387.693 35.008 388.942 31.7589 391.108 28.6765z"
             id="path22" />
          <path
             style="stroke:#000000;stroke-width:0.21602700000000000;fill:#800080"
             d="M 341.414 25.1358C 342.331 25.1358 343.039 27.1352 343.497 31.0924L 344.996 43.1723C 345.538 47.1711 346.204 50.0453 346.996 51.7532C 347.787 53.4611 349.037 54.2941 350.745 54.2941C 352.369 54.2941 354.452 52.7528 356.951 49.6288C 358.951 47.0045 360.909 43.9637 362.783 40.4648L 358.743 56.3769C 357.493 61.5421 356.16 65.0411 354.744 66.9156C 353.494 68.4568 351.87 69.3316 349.87 69.5815L 351.203 72.9971C 353.827 71.9975 356.202 70.4979 358.326 68.4152C 362.325 64.4996 365.241 58.8762 367.032 51.5866L 374.946 20.2622L 367.449 20.6786L 365.074 30.5509C 361.159 37.0908 358.993 40.7148 358.534 41.4644C 356.368 44.7968 354.785 46.463 353.744 46.463C 353.078 46.463 352.494 44.6718 352.036 41.0897L 350.828 31.3007C 350.245 26.8437 349.579 23.8861 348.829 22.3033C 348.079 20.6786 346.788 19.9289 344.913 19.9289C 341.872 19.9289 338.748 22.095 335.416 26.4688L 334.791 30.4259C 338.207 26.8852 340.414 25.1358 341.414 25.1358z"
             id="path24" />
          <path
             style="stroke:#000000;stroke-width:0.21602700000000000;fill:#800080"
             d="M 293.719 18.0544C 293.719 14.6388 292.303 12.2228 289.387 10.8898C 286.555 9.4735 281.723 8.80707 274.933 8.80707C 266.185 8.80707 259.604 10.265 255.23 13.2224C 250.856 16.1384 248.399 21.012 247.857 27.8433L 254.855 24.7192L 254.855 23.6778C 254.855 20.3454 256.063 17.5962 258.479 15.5135C 260.895 13.4307 263.853 12.3894 267.393 12.3894L 261.853 39.465C 261.187 42.964 260.312 45.4217 259.312 46.7545C 258.271 48.1709 256.813 48.8373 254.98 48.8373C 254.605 48.8373 254.23 48.7957 253.939 48.754C 253.564 48.7124 253.314 48.6707 253.189 48.6707L 252.564 48.6707L 247.774 54.2524L 267.435 55.0439L 271.892 49.4205L 260.229 49.2122C 265.644 46.3796 268.935 41.9226 270.143 35.8411L 270.559 33.6333L 275.349 33.6333L 281.889 45.7132C 285.222 51.9198 288.387 55.0439 291.345 55.0439C 293.594 55.0439 297.01 52.7113 301.592 48.0043L 302.217 44.2553C 298.093 47.796 295.469 49.5871 294.302 49.5871C 293.303 49.5871 291.595 47.546 289.137 43.4222L 282.056 31.9672C 289.845 28.2599 293.719 23.6362 293.719 18.0544zM 275.558 11.8895L 275.558 11.8895C 282.472 11.8895 285.93 14.2222 285.93 18.8875C 285.93 24.1361 283.347 28.0516 278.224 30.5509L 271.059 30.5509L 274.933 11.8895L 275.558 11.8895z"
             id="path26" />
          <path
             style="stroke:#000000;stroke-width:0.21602700000000000;fill:#800080"
             d="M 329.792 26.9269C 329.792 24.8858 329.209 23.178 328.001 21.8867C 326.752 20.5537 325.169 19.8456 323.211 19.8456C 318.129 19.8456 313.38 22.4282 308.965 27.5101C 304.549 32.5503 302.3 37.9655 302.3 43.7554C 302.3 47.0879 303.258 49.7954 305.133 51.8781C 307.007 54.0026 309.465 55.0439 312.506 55.0439C 317.088 55.0439 322.669 52.7528 329.293 48.1709L 329.792 44.8801C 323.961 48.5458 319.212 50.3369 315.63 50.3369C 311.839 50.3369 309.923 47.5043 309.923 41.7977L 309.923 41.506C 315.088 41.506 319.712 40.0899 323.711 37.2157C 327.793 34.3831 329.792 30.9258 329.792 26.9269zM 310.006 38.4654L 310.006 38.4654C 310.423 35.008 311.673 31.7589 313.839 28.6765C 315.921 25.6356 318.087 24.0944 320.295 24.0944C 322.086 24.0944 323.003 25.4273 323.003 28.0516C 323.003 30.9675 321.795 33.3418 319.379 35.2163C 317.004 37.0491 313.88 38.1321 310.006 38.4654z"
             id="path28" />
          <path
             style="stroke:#000000;stroke-width:0.21602700000000000;fill:#800080"
             d="M 315.13 61.2505L 315.13 64.1247L 323.419 64.1247L 314.172 73.1222L 314.172 74.9133L 328.876 74.9133L 328.876 71.9558L 319.504 71.9558L 328.876 62.9167L 328.876 61.2505L 315.13 61.2505z"
             id="path30" />
          <path
             style="stroke:#000000;stroke-width:0.21602700000000000;fill:#800080"
             d="M 310.298 63.9997L 310.298 61.2505L 296.302 61.2505L 296.302 74.9133L 310.423 74.9133L 310.423 71.9558L 299.884 71.9558L 299.884 69.1649L 305.966 69.1649L 305.966 66.4573L 299.884 66.4573L 299.884 63.9997L 310.298 63.9997z"
             id="path32" />
          <path
             style="stroke:#000000;stroke-width:0.21602700000000000;fill:#800080"
             d="M 334.749 74.9133L 336.291 72.0392L 344.33 72.0392L 345.913 74.9133L 349.787 74.9133L 342.122 61.2505L 338.832 61.2505L 331.292 74.9133L 334.749 74.9133zM 340.373 64.333L 340.373 64.333L 342.955 69.1649L 337.707 69.1649L 340.373 64.333z"
             id="path34" />
          <path
             style="stroke:#000000;stroke-width:0.21602700000000000;fill:#800080"
             d="M 281.598 64.0414C 281.598 63.0833 281.348 62.3752 280.806 61.917C 280.306 61.5005 279.473 61.2505 278.39 61.2505L 266.852 61.2505L 266.852 74.9133L 270.392 74.9133L 270.392 69.7898L 278.39 69.7898C 279.473 69.7898 280.306 69.5815 280.806 69.1233C 281.348 68.6651 281.598 67.9569 281.598 66.9988L 281.598 64.0414zM 278.14 64.8328L 278.14 64.8328L 278.14 66.249C 278.14 66.5407 278.057 66.749 277.932 66.8739C 277.765 66.9573 277.474 67.0405 277.016 67.0405L 270.392 67.0405L 270.392 64.0414L 277.016 64.0414C 277.474 64.0414 277.765 64.083 277.932 64.208C 278.057 64.2913 278.14 64.4996 278.14 64.8328z"
             id="path36" />
          <path
             style="stroke:#000000;stroke-width:0.21602700000000000;fill:#800080"
             d="M 286.263 61.2505L 286.263 74.9133L 289.845 74.9133L 289.845 61.2505L 286.263 61.2505z"
             id="path38" />
          <path
             style="stroke:#000000;stroke-width:0.21602700000000000;fill:#800080"
             d="M 208.16 27.7601C 208.16 25.0525 209.91 23.6778 213.367 23.6778C 216.449 23.6778 217.949 24.8442 217.949 27.1352C 217.949 27.3018 217.949 27.5101 217.907 27.7601L 217.782 28.8431L 220.823 28.8431L 222.281 21.2618C 219.657 20.3454 217.366 19.9289 215.491 19.9289C 212.076 19.9289 208.993 21.012 206.286 23.2613C 203.578 25.4273 202.245 27.9684 202.245 30.8842C 202.245 33.0086 203.62 35.5495 206.411 38.5903L 209.118 41.5894C 211.243 43.9221 212.326 45.7132 212.326 46.9628C 212.326 48.0459 211.826 48.9623 210.826 49.7121C 209.826 50.5035 208.535 50.8784 207.035 50.8784C 204.495 50.8784 201.829 49.9204 199.079 48.0043L 194.581 52.9196C 197.955 54.3358 200.954 55.0439 203.578 55.0439C 207.327 55.0439 210.701 53.9609 213.7 51.7532C 216.658 49.5871 218.116 47.0462 218.116 44.172C 218.116 42.0892 216.741 39.465 213.95 36.341L 211.451 33.6333C 209.285 31.1341 208.16 29.1763 208.16 27.7601z"
             id="path40" />
          <path
             style="stroke:#000000;stroke-width:0.21602700000000000;fill:#800080"
             d="M 155.008 18.346L 156.633 9.93175C 153.925 8.47386 151.593 7.72407 149.593 7.72407C 145.344 7.72407 141.512 9.22364 138.18 12.2228C 134.847 15.3052 132.723 19.1375 131.848 23.8028L 128.766 39.0902C 128.016 42.964 127.1 45.5049 126.1 46.7545C 125.1 48.0459 123.517 48.6707 121.31 48.6707L 119.352 48.6707L 114.77 54.2524L 143.387 55.2522C 145.844 55.2522 147.802 54.8773 149.302 54.1692C 150.76 53.4194 152.967 51.7532 155.883 49.1706L 156.383 45.9632C 152.218 48.2125 147.552 49.2955 142.47 49.2955L 127.016 49.0873C 129.974 48.0875 132.223 46.463 133.723 44.172C 135.222 41.8809 136.389 38.632 137.222 34.4248L 139.971 20.6786C 141.179 14.5137 143.512 11.473 146.927 11.473C 150.343 11.473 152.051 13.0975 152.051 16.3882C 152.051 16.7215 152.009 17.3463 151.926 18.346L 155.008 18.346z"
             id="path42" />
          <path
             style="stroke:#000000;stroke-width:0.21602700000000000;fill:#800080"
             d="M 193.581 31.1341C 193.581 27.9267 192.623 25.2191 190.748 23.1363C 188.832 20.9703 186.375 19.9289 183.376 19.9289C 178.127 19.9289 173.253 22.4282 168.755 27.4267C 164.297 32.3837 162.048 37.8405 162.048 43.7554C 162.048 46.9213 162.964 49.6288 164.839 51.7532C 166.713 53.9609 169.004 55.0439 171.837 55.0439C 177.377 55.0439 182.417 52.5862 186.874 47.6294C 191.373 42.7141 193.581 37.2157 193.581 31.1341zM 180.335 23.6778L 180.335 23.6778C 183.959 23.6778 185.791 26.7186 185.791 32.9252C 185.791 37.7989 184.708 42.0892 182.542 45.7132C 180.376 49.4205 177.96 51.2533 175.253 51.2533C 171.67 51.2533 169.838 48.2125 169.838 42.1309C 169.838 37.299 170.962 33.0086 173.17 29.2597C 175.378 25.5523 177.752 23.6778 180.335 23.6778z"
             id="path44" />
          <path
             style="stroke:#000000;stroke-width:0.21602700000000000;fill:#800080"
             d="M 182.001 74.9133L 185.458 74.9133L 186.999 72.0392L 195.039 72.0392L 196.622 74.9133L 200.496 74.9133L 192.831 61.2505L 189.582 61.2505L 182.001 74.9133zM 191.082 64.333L 191.082 64.333L 193.664 69.1649L 188.416 69.1649L 191.082 64.333z"
             id="path46" />
          <path
             style="stroke:#000000;stroke-width:0.21602700000000000;fill:#800080"
             d="M 170.712 71.9558L 170.712 61.2505L 167.13 61.2505L 167.13 74.9133L 180.585 74.9133L 180.585 71.9558L 170.712 71.9558z"
             id="path48" />
          <path
             style="stroke:#000000;stroke-width:0.21602700000000000;fill:#800080"
             d="M 146.969 69.1649L 146.969 66.4573L 140.887 66.4573L 140.887 63.9997L 151.301 63.9997L 151.301 61.2505L 137.305 61.2505L 137.305 74.9133L 151.426 74.9133L 151.426 71.9558L 140.887 71.9558L 140.887 69.1649L 146.969 69.1649z"
             id="path50" />
          <path
             style="stroke:#000000;stroke-width:0.21602700000000000;fill:#800080"
             d="M 245.649 66.5407C 245.649 66.4573 245.649 66.3741 245.649 66.2907C 245.774 66.4573 245.858 66.5824 246.024 66.749L 250.898 73.3305L 251.814 73.3305L 256.813 66.7073C 256.855 66.5824 256.938 66.499 257.021 66.3741C 257.021 66.4573 257.021 66.4573 257.021 66.5407L 257.021 74.9133L 260.395 74.9133L 260.395 61.2505L 257.521 61.2505L 251.606 69.2066L 245.483 61.2505L 242.65 61.2505L 242.65 74.9133L 245.649 74.9133L 245.649 66.5407z"
             id="path52" />
          <path
             style="stroke:#000000;stroke-width:0.21602700000000000;fill:#800080"
             d="M 214.783 61.2505L 214.783 74.9133L 228.238 74.9133L 228.238 71.9558L 218.366 71.9558L 218.366 61.2505L 214.783 61.2505z"
             id="path54" />
          <path
             style="stroke:#000000;stroke-width:0.21602700000000000;fill:#800080"
             d="M 236.236 61.2505L 232.611 61.2505L 232.611 74.9133L 236.236 74.9133L 236.236 61.2505z"
             id="path56" />
          <path
             style="stroke:#000000;stroke-width:0.21602700000000000;fill:#800080"
             d="M 90.9432 15.7635C 90.8181 15.9717 90.7349 16.1799 90.6515 16.3466C 90.4017 16.8465 90.235 17.3463 90.1934 17.8462C 90.0684 18.6376 90.11 19.3874 90.36 20.1788C 90.5683 21.012 90.9015 21.7201 91.4013 22.3449C 90.6099 27.885 89.6935 31.9672 88.6105 34.5497C 87.6107 36.9658 86.5277 37.9655 85.3613 37.6323C 82.7371 36.7159 79.613 29.7595 75.989 16.8048C 75.9474 16.7215 75.9474 16.6799 75.9057 16.6799L 76.1557 16.4716C 76.1557 16.4716 76.1973 16.4716 76.1973 16.5132C 76.2806 16.5548 76.3639 16.5548 76.4056 16.5548C 76.4889 16.5548 76.5306 16.5132 76.6138 16.4299C 76.7805 16.1799 76.9471 15.9301 77.1137 15.6801L 77.1137 15.6384C 77.7802 14.5137 77.9885 13.3058 77.8634 12.0978C 77.8219 11.8062 77.7385 11.5146 77.6969 11.2647C 77.2804 9.68178 76.3639 8.51542 75.031 7.72407C 73.7813 7.05752 72.49 6.80755 71.1154 7.05752C 70.9904 7.05752 70.8655 7.09921 70.7405 7.14088C 70.6989 7.14088 70.6572 7.14088 70.6155 7.18245C 69.0743 7.59903 67.908 8.47386 67.1165 9.89007C 66.4084 11.0564 66.1585 12.306 66.3668 13.639C 66.4084 13.8056 66.45 14.0139 66.5334 14.2639C 66.8666 15.5968 67.5747 16.6382 68.6161 17.388L 68.6578 17.388C 68.6994 17.4296 68.6994 17.4296 68.7411 17.4296C 67.4081 28.3016 65.5753 34.6331 63.201 36.4659C 62.7011 36.7991 62.1179 36.7159 61.4515 36.1744C 60.7017 35.5078 59.8685 34.2999 58.9106 32.592C 56.9944 29.0514 54.745 23.3029 52.1625 15.3886C 52.454 15.0552 52.704 14.722 52.9538 14.3888C 53.4953 13.5141 53.9119 12.5977 54.1202 11.5563L 54.1202 11.5979C 54.1618 11.3896 54.2036 11.1814 54.2451 10.9731C 54.4951 9.51518 54.2868 8.05728 53.7036 6.68263C 52.0791 2.80876 49.1633 0.975971 44.9561 1.14257C 43.4565 1.30918 42.1236 1.76732 41.0406 2.55879C 40.624 2.80876 40.2908 3.14197 39.9576 3.47519L 39.6659 3.76684C 39.6659 3.76684 39.6242 3.76684 39.6242 3.8084L 39.3744 4.10005C 39.1244 4.35002 38.9161 4.64155 38.7078 4.93308C 38.458 5.34966 38.2497 5.72455 38.0831 6.14113L 38.0414 6.18281C 37.8331 6.68263 37.6665 7.22413 37.5831 7.76563C 37.5416 7.76563 37.5416 7.80731 37.5416 7.80731C 37.5416 7.89067 37.4999 7.97392 37.4999 8.05728C 37.2083 9.30689 37.2083 10.5149 37.5416 11.7229C 37.5416 11.8479 37.5831 12.0145 37.6665 12.1811C 37.7914 12.5977 37.958 13.0142 38.1663 13.4724C 38.458 14.0556 38.7495 14.5554 39.1244 15.0137C 39.9576 16.055 40.9989 16.8465 42.3318 17.4296C 43.998 25.6773 44.9144 31.8006 45.0395 35.8411C 45.081 37.7989 44.9144 39.2984 44.5812 40.2148C 44.2897 41.048 43.8314 41.4228 43.2066 41.3811C 40.2491 41.0063 35.792 36.5076 29.8354 27.885C 29.8354 27.8433 29.8354 27.8433 29.877 27.8433L 29.877 27.8016C 30.3769 26.5937 30.5018 25.3857 30.1686 24.0944C 30.1686 24.0944 30.1686 24.0527 30.1686 24.0111C 30.0853 23.8028 30.002 23.5946 29.9603 23.3863C 29.4605 22.1367 28.6274 21.1786 27.461 20.512C 26.0448 19.7207 24.5869 19.5124 23.0456 19.9289C 23.004 19.9289 22.9622 19.9289 22.9207 19.9289C 22.7957 19.9705 22.6707 20.0122 22.5458 20.0956C 21.2544 20.5537 20.2548 21.3869 19.5466 22.6365C 18.7135 23.9695 18.5469 25.4273 18.9635 27.0103C 19.0467 27.2601 19.1301 27.5518 19.255 27.8016C 19.7133 28.9263 20.5047 29.8428 21.6294 30.5093C 21.8793 30.6342 22.1292 30.7592 22.3792 30.8425C 25.6282 43.7138 26.3363 51.3783 24.5452 53.8775C 23.712 55.0022 22.2542 54.919 20.1714 53.6694C 17.9637 52.3364 15.1311 49.6704 11.6322 45.7132C 11.5073 45.5466 11.3822 45.4217 11.2573 45.2966C 11.3822 45.0468 11.5488 44.8385 11.6739 44.5885L 11.6322 44.5885C 12.257 43.5055 12.5069 42.3392 12.382 41.0897C 12.382 40.798 12.2986 40.548 12.1737 40.2982C 12.0488 39.9233 11.8405 39.5901 11.6739 39.2984C 10.6324 37.7572 9.13284 36.9658 7.13345 36.8825C 5.2173 36.7575 3.67604 37.4657 2.50978 38.8819C 1.09346 40.6314 0.760254 42.5058 1.55171 44.5885C 2.3015 46.5047 3.71773 47.7126 5.7588 48.2125L 17.0473 71.7475C 17.089 71.7892 17.1307 71.8309 17.1722 71.8725C 17.2139 71.8725 17.2973 71.9141 17.3388 71.9141C 17.3805 71.8725 17.3805 71.8725 17.3805 71.8725L 17.4639 71.8725C 17.5054 71.8725 17.5471 71.8309 17.5471 71.7475C 17.5888 71.7058 17.6305 71.6226 17.6722 71.5392C 18.172 70.7478 19.1301 69.8314 20.5463 68.8317C 22.5041 67.4571 25.2533 65.9158 28.919 64.208C 30.5435 63.4166 32.2931 62.6667 34.1675 61.917L 34.2091 61.917C 35.0423 61.5421 35.917 61.1672 36.8334 60.8339C 41.3321 59.0428 46.2891 57.3349 51.7042 55.7104L 51.7459 55.7104C 51.8708 55.6688 52.0374 55.6271 52.204 55.5854L 52.2457 55.5854C 52.4123 55.5438 52.5789 55.4605 52.7872 55.4188C 52.9955 55.3355 53.2455 55.2939 53.4953 55.2105L 54.8283 54.8356C 54.9533 54.8356 55.0782 54.7524 55.2032 54.7107C 55.7864 54.5857 56.2446 54.4607 56.7028 54.3358C 58.4106 53.836 59.3687 53.586 59.577 53.5443C 60.785 53.2111 61.9513 52.9196 63.1176 52.6279L 63.1593 52.6279C 63.3259 52.5862 63.4925 52.5447 63.6175 52.5447L 63.6591 52.5447C 69.1576 51.2117 74.3228 50.2119 79.1132 49.5038C 80.1128 49.3372 81.0709 49.2122 81.9873 49.0873C 83.9451 48.8373 85.8613 48.629 87.7357 48.4624C 91.6513 48.1292 94.8171 48.0875 97.233 48.2958C 98.6077 48.4207 99.6907 48.629 100.565 48.9623L 100.565 49.0039C 100.732 49.0456 100.899 49.1289 101.065 49.2539C 101.149 49.2539 101.232 49.2955 101.274 49.3788C 101.315 49.3788 101.357 49.3788 101.44 49.3788L 101.482 49.3788C 101.565 49.3788 101.607 49.3372 101.69 49.2539C 101.69 49.2122 101.69 49.1289 101.69 49.0873L 99.7324 23.0531C 100.191 22.6782 100.565 22.2199 100.899 21.6367C 100.94 21.6367 100.94 21.5952 100.94 21.5952C 101.732 20.2205 101.94 18.7626 101.523 17.1797C 101.357 16.6382 101.149 16.1384 100.899 15.7218C 100.399 14.8471 99.7324 14.1805 98.816 13.6807C 97.733 13.0142 96.5666 12.7643 95.3169 12.9309C 95.0254 12.9726 94.7337 13.0142 94.4422 13.0975C 92.8592 13.5141 91.7345 14.3888 90.9432 15.7635zM 95.9001 14.5971L 95.9001 14.5971C 96.0667 14.5971 96.1917 14.5971 96.3166 14.6388C 98.8992 15.3469 100.316 16.8881 100.524 19.3041C 100.565 19.5124 100.482 19.7207 100.357 19.8873C 100.232 20.0539 100.066 20.1371 99.8573 20.2205C 99.649 20.2205 99.4824 20.2205 99.2741 20.1371C 99.0658 20.0122 98.9409 19.8456 98.8575 19.679C 98.3994 18.3877 97.5247 17.7212 96.2334 17.7212C 96.0251 17.6796 95.8168 17.6379 95.6918 17.5129C 95.1503 17.0547 94.8587 16.5965 94.8587 16.1799C 94.7337 15.6801 94.9837 15.1803 95.5669 14.7637C 95.6918 14.6803 95.7751 14.6388 95.9001 14.5971zM 71.4487 8.80707L 71.4487 8.80707C 71.5319 8.72371 71.657 8.68203 71.7819 8.68203C 71.9068 8.64046 72.0319 8.64046 72.1568 8.68203C 74.7394 9.39025 76.1557 10.9314 76.4056 13.3058C 76.4056 13.5141 76.3639 13.7224 76.239 13.889C 76.114 14.0973 75.9474 14.1805 75.7391 14.2639C 75.5308 14.3054 75.3226 14.2639 75.1559 14.1805C 74.9477 14.0556 74.7811 13.889 74.7394 13.6807C 74.2812 12.431 73.4064 11.7645 72.1151 11.7645C 71.9068 11.7229 71.6985 11.6813 71.5319 11.5563C 71.0321 11.0981 70.7405 10.6399 70.7405 10.2233C 70.6155 9.68178 70.8655 9.22364 71.4487 8.80707zM 6.30031 38.632L 6.30031 38.632C 6.42535 38.5903 6.55026 38.5903 6.6752 38.632C 9.21622 39.3818 10.6324 40.9229 10.8824 43.2972C 10.9241 43.5055 10.8407 43.7138 10.7158 43.8804C 10.5907 44.047 10.4241 44.172 10.2575 44.2136C 10.0077 44.2553 9.84096 44.2553 9.6328 44.1303C 9.46606 44.047 9.29945 43.8804 9.2579 43.6721C 8.79964 42.3808 7.92493 41.756 6.59195 41.756C 6.38367 41.7143 6.21706 41.6311 6.09203 41.506C 5.50896 41.048 5.25897 40.5897 5.25897 40.2148C 5.13406 39.6733 5.34222 39.2152 5.92542 38.7986C 6.05046 38.7153 6.17537 38.6736 6.30031 38.632zM 28.5024 24.8025L 28.5024 24.8025L 28.5024 24.7609C 28.669 25.2191 28.8356 25.7606 28.8773 26.3437C 28.919 26.552 28.8356 26.7186 28.7107 26.8852C 28.5857 27.0935 28.4191 27.2186 28.2108 27.2186C 28.0025 27.3018 27.7943 27.2601 27.6277 27.1769C 27.461 27.0519 27.2944 26.8852 27.2528 26.7186C 27.0861 26.3021 26.9195 25.9688 26.7112 25.6773L 26.7112 25.7606C 26.4613 25.3857 26.1697 25.1358 25.7948 25.0108C 25.4199 24.8442 25.0033 24.7609 24.5869 24.7192C 24.3786 24.7192 24.1703 24.6776 24.0454 24.511C 23.5039 24.0944 23.2122 23.6362 23.2122 23.2613C 23.1289 22.7198 23.3371 22.2199 23.9203 21.8033C 24.0454 21.7201 24.1286 21.6784 24.2537 21.6784C 24.4203 21.6367 24.5452 21.6367 24.6701 21.6784C 25.2533 21.8033 25.7533 22.0533 26.2531 22.3449L 26.2531 22.3033C 27.3361 22.8864 28.0859 23.7195 28.5024 24.8025zM 52.9538 10.015L 52.9538 10.015C 52.8289 10.1817 52.6623 10.3483 52.4957 10.4316C 52.2874 10.5149 52.0791 10.5149 51.9125 10.4316C 51.7042 10.3899 51.5376 10.2233 51.4127 10.0567C 50.0797 7.68238 48.0802 6.68263 45.4976 7.09921C 45.2893 7.09921 45.081 7.05752 44.9144 6.97428C 44.0397 6.43278 43.5399 5.89116 43.4149 5.30798C 43.165 4.64155 43.3732 3.97512 44.0397 3.2669C 44.123 3.18365 44.2063 3.10029 44.3313 3.05861C 44.4563 3.01704 44.5812 3.01704 44.7478 3.01704C 49.2049 3.4335 51.9542 5.55795 52.9955 9.39025C 53.0372 9.59854 53.0372 9.80683 52.9538 10.015z"
             id="path58" />
          <path
             style="stroke:#000000;stroke-width:0.21602700000000000;fill:#800080"
             d="M 46.414 64.4996C 44.1646 65.2911 41.9153 66.1241 39.6659 66.9573C 37.9997 67.6654 36.2919 68.3318 34.6257 69.04C 33.0012 69.7898 31.335 70.5396 29.7937 71.3726C 28.4191 72.0807 27.1278 72.8305 25.7948 73.5803L 25.7948 73.5388C 23.9203 74.5384 22.3792 75.8714 21.2128 77.5792C 20.9212 77.9541 20.8379 78.4124 21.0045 78.8705C 21.2961 79.9535 21.9626 80.6618 23.004 80.9533C 24.1286 81.3282 25.2533 81.5365 26.4197 81.5781C 28.8773 81.7448 31.3766 81.7448 33.9176 81.5365C 36.0836 81.3699 38.3329 81.1616 40.624 80.8284C 42.4985 80.495 44.4146 80.2035 46.3307 79.912C 48.4135 79.5371 50.5378 79.1205 52.6623 78.7873C 55.0366 78.2457 57.411 77.7042 59.7436 77.0794C 62.2012 76.3712 64.6589 75.7048 67.1582 74.9967C 69.5325 74.3718 71.9068 73.7054 74.2395 72.9971C 76.6555 72.1641 79.0298 71.331 81.4042 70.4979C 83.7368 69.5815 86.1111 68.6235 88.4022 67.6237C 90.36 66.7073 92.3177 65.8326 94.3172 64.8745C 96.4832 63.7498 98.5243 62.4169 100.357 60.8339L 100.399 60.8339C 100.565 60.709 100.732 60.5841 100.857 60.4174C 101.232 60.0426 101.523 59.626 101.815 59.1677L 101.815 59.126C 102.107 58.5845 102.148 57.9598 101.94 57.3766C 101.732 56.7518 101.357 56.3352 100.774 56.0436L 100.732 56.0436C 99.5658 55.4605 98.2745 55.1688 96.8998 55.0856C 94.3172 54.9606 91.7345 54.9606 89.2353 55.2105C 86.9443 55.2939 84.6532 55.5021 82.4039 55.877C 80.3628 56.1686 78.3217 56.5018 76.2806 56.7934C 73.823 57.2933 71.3653 57.7515 68.9493 58.2513C 66.3251 58.7928 63.7425 59.4177 61.2432 60.0841C 59.7853 60.4174 58.2857 60.8339 56.7444 61.2922L 55.4115 61.6254C 54.87 61.8337 54.3285 62.0003 53.8286 62.0836L 53.787 62.0836C 51.3293 62.875 48.8717 63.6665 46.414 64.4996z"
             id="path60" />
          <path
             style="stroke:#000000;stroke-width:0.21602700000000000;fill:#800080"
             d="M 115.145 61.2505L 115.145 74.9133L 123.101 74.9133C 124.475 74.9133 125.558 74.8716 126.433 74.6634C 127.308 74.4967 128.058 74.2469 128.641 73.872C 129.641 73.2888 130.39 72.4556 130.89 71.456C 131.432 70.4146 131.682 69.2899 131.682 67.9986C 131.682 65.8741 131.015 64.208 129.641 63C 128.308 61.8337 126.392 61.2505 123.892 61.2505L 115.145 61.2505zM 118.769 71.9558L 118.769 71.9558L 118.769 64.1247L 123.934 64.1247C 125.267 64.1247 126.267 64.4162 126.975 65.0828C 127.683 65.7075 128.016 66.7073 128.016 67.9569C 128.016 69.3732 127.599 70.4146 126.766 70.9977C 125.933 71.6226 124.517 71.9558 122.434 71.9558L 118.769 71.9558z"
             id="path62" />
        </g>
      </g>
    </g>
  </g>
  <rect
     style="opacity:1;fill:#552255;fill-opacity:1;stroke:none;stroke-width:2;stroke-miterlimit:4;stroke-dasharray:none;stroke-dashoffset:0;stroke-opacity:1"
     id="rect2409"
     width="600"
     height="430"
     x="-80.802994"
     y="156.95697"
     inkscape:export-filename="/home/rsk/desarrollo/otros/losreyes/text3218.png"
     inkscape:export-xdpi="90"
     inkscape:export-ydpi="90" />
  <g
     id="g3194"
     style="fill:#ffffff;fill-opacity:1;stroke:none"
     transform="matrix(0.7191377,0,0,0.7191377,167.56412,464.56092)"
     inkscape:export-xdpi="90"
     inkscape:export-ydpi="90"
     inkscape:export-filename="/home/rsk/desarrollo/otros/losreyes/text3218.png">
    <g
       id="g3196"
       style="fill:#ffffff;fill-opacity:1;stroke:none">
      <g
         id="g3198"
         style="fill:#ffffff;fill-opacity:1;stroke:none">
        <g
           id="g3200"
           style="fill:#ffffff;fill-opacity:1;stroke:none">
          <path
             style="fill:#ffffff;fill-opacity:1;stroke:none;stroke-width:0.21602701"
             d="M 417.226,30.8842 C 417.226,33.0086 418.642,35.5495 421.392,38.5903 L 424.099,41.5894 C 426.265,43.9221 427.348,45.7132 427.348,46.9628 C 427.348,48.0459 426.848,48.9623 425.807,49.7121 C 424.807,50.5035 423.558,50.8784 422.016,50.8784 C 419.475,50.8784 416.81,49.9204 414.06,48.0043 L 409.562,52.9196 C 412.936,54.3358 415.935,55.0439 418.601,55.0439 C 422.35,55.0439 425.724,53.9609 428.681,51.7532 C 431.639,49.5871 433.097,47.0462 433.097,44.172 C 433.097,42.0892 431.722,39.465 428.931,36.341 L 426.432,33.6333 C 424.266,31.1341 423.183,29.1763 423.183,27.7601 C 423.183,25.0525 424.891,23.6778 428.39,23.6778 C 431.43,23.6778 432.972,24.8442 432.972,27.1352 C 432.972,27.3018 432.93,27.5101 432.888,27.7601 L 432.805,28.8431 L 435.804,28.8431 L 437.262,21.2618 C 434.638,20.3454 432.388,19.9289 430.514,19.9289 C 427.057,19.9289 424.016,21.012 421.308,23.2613 C 418.601,25.4273 417.226,27.9684 417.226,30.8842 z"
             id="path3202" />
          <path
             style="fill:#ffffff;fill-opacity:1;stroke:none;stroke-width:0.21602701"
             d="M 406.562,48.1709 L 407.062,44.8801 C 401.231,48.5458 396.482,50.3369 392.9,50.3369 C 389.109,50.3369 387.193,47.5043 387.193,41.7977 L 387.193,41.506 C 392.358,41.506 396.982,40.0899 400.981,37.2157 C 405.063,34.3831 407.062,30.9258 407.062,26.9269 C 407.062,24.8858 406.479,23.178 405.271,21.8867 C 404.022,20.5537 402.439,19.8456 400.481,19.8456 C 395.399,19.8456 390.65,22.4282 386.235,27.5101 C 381.819,32.5503 379.57,37.9655 379.57,43.7554 C 379.57,47.0879 380.528,49.7954 382.403,51.8781 C 384.277,54.0026 386.735,55.0439 389.776,55.0439 C 394.358,55.0439 399.939,52.7528 406.562,48.1709 z M 391.108,28.6765 L 391.108,28.6765 C 393.191,25.6356 395.357,24.0944 397.565,24.0944 C 399.356,24.0944 400.273,25.4273 400.273,28.0516 C 400.273,30.9675 399.065,33.3418 396.649,35.2163 C 394.274,37.0491 391.15,38.1321 387.276,38.4654 C 387.693,35.008 388.942,31.7589 391.108,28.6765 z"
             id="path3204" />
          <path
             style="fill:#ffffff;fill-opacity:1;stroke:none;stroke-width:0.21602701"
             d="M 341.414,25.1358 C 342.331,25.1358 343.039,27.1352 343.497,31.0924 L 344.996,43.1723 C 345.538,47.1711 346.204,50.0453 346.996,51.7532 C 347.787,53.4611 349.037,54.2941 350.745,54.2941 C 352.369,54.2941 354.452,52.7528 356.951,49.6288 C 358.951,47.0045 360.909,43.9637 362.783,40.4648 L 358.743,56.3769 C 357.493,61.5421 356.16,65.0411 354.744,66.9156 C 353.494,68.4568 351.87,69.3316 349.87,69.5815 L 351.203,72.9971 C 353.827,71.9975 356.202,70.4979 358.326,68.4152 C 362.325,64.4996 365.241,58.8762 367.032,51.5866 L 374.946,20.2622 L 367.449,20.6786 L 365.074,30.5509 C 361.159,37.0908 358.993,40.7148 358.534,41.4644 C 356.368,44.7968 354.785,46.463 353.744,46.463 C 353.078,46.463 352.494,44.6718 352.036,41.0897 L 350.828,31.3007 C 350.245,26.8437 349.579,23.8861 348.829,22.3033 C 348.079,20.6786 346.788,19.9289 344.913,19.9289 C 341.872,19.9289 338.748,22.095 335.416,26.4688 L 334.791,30.4259 C 338.207,26.8852 340.414,25.1358 341.414,25.1358 z"
             id="path3206" />
          <path
             style="fill:#ffffff;fill-opacity:1;stroke:none;stroke-width:0.21602701"
             d="M 293.719,18.0544 C 293.719,14.6388 292.303,12.2228 289.387,10.8898 C 286.555,9.4735 281.723,8.80707 274.933,8.80707 C 266.185,8.80707 259.604,10.265 255.23,13.2224 C 250.856,16.1384 248.399,21.012 247.857,27.8433 L 254.855,24.7192 L 254.855,23.6778 C 254.855,20.3454 256.063,17.5962 258.479,15.5135 C 260.895,13.4307 263.853,12.3894 267.393,12.3894 L 261.853,39.465 C 261.187,42.964 260.312,45.4217 259.312,46.7545 C 258.271,48.1709 256.813,48.8373 254.98,48.8373 C 254.605,48.8373 254.23,48.7957 253.939,48.754 C 253.564,48.7124 253.314,48.6707 253.189,48.6707 L 252.564,48.6707 L 247.774,54.2524 L 267.435,55.0439 L 271.892,49.4205 L 260.229,49.2122 C 265.644,46.3796 268.935,41.9226 270.143,35.8411 L 270.559,33.6333 L 275.349,33.6333 L 281.889,45.7132 C 285.222,51.9198 288.387,55.0439 291.345,55.0439 C 293.594,55.0439 297.01,52.7113 301.592,48.0043 L 302.217,44.2553 C 298.093,47.796 295.469,49.5871 294.302,49.5871 C 293.303,49.5871 291.595,47.546 289.137,43.4222 L 282.056,31.9672 C 289.845,28.2599 293.719,23.6362 293.719,18.0544 z M 275.558,11.8895 L 275.558,11.8895 C 282.472,11.8895 285.93,14.2222 285.93,18.8875 C 285.93,24.1361 283.347,28.0516 278.224,30.5509 L 271.059,30.5509 L 274.933,11.8895 L 275.558,11.8895 z"
             id="path3208" />
          <path
             style="fill:#ffffff;fill-opacity:1;stroke:none;stroke-width:0.21602701"
             d="M 329.792,26.9269 C 329.792,24.8858 329.209,23.178 328.001,21.8867 C 326.752,20.5537 325.169,19.8456 323.211,19.8456 C 318.129,19.8456 313.38,22.4282 308.965,27.5101 C 304.549,32.5503 302.3,37.9655 302.3,43.7554 C 302.3,47.0879 303.258,49.7954 305.133,51.8781 C 307.007,54.0026 309.465,55.0439 312.506,55.0439 C 317.088,55.0439 322.669,52.7528 329.293,48.1709 L 329.792,44.8801 C 323.961,48.5458 319.212,50.3369 315.63,50.3369 C 311.839,50.3369 309.923,47.5043 309.923,41.7977 L 309.923,41.506 C 315.088,41.506 319.712,40.0899 323.711,37.2157 C 327.793,34.3831 329.792,30.9258 329.792,26.9269 z M 310.006,38.4654 L 310.006,38.4654 C 310.423,35.008 311.673,31.7589 313.839,28.6765 C 315.921,25.6356 318.087,24.0944 320.295,24.0944 C 322.086,24.0944 323.003,25.4273 323.003,28.0516 C 323.003,30.9675 321.795,33.3418 319.379,35.2163 C 317.004,37.0491 313.88,38.1321 310.006,38.4654 z"
             id="path3210" />
          <path
             style="fill:#ffffff;fill-opacity:1;stroke:none;stroke-width:0.21602701"
             d="M 315.13,61.2505 L 315.13,64.1247 L 323.419,64.1247 L 314.172,73.1222 L 314.172,74.9133 L 328.876,74.9133 L 328.876,71.9558 L 319.504,71.9558 L 328.876,62.9167 L 328.876,61.2505 L 315.13,61.2505 z"
             id="path3212" />
          <path
             style="fill:#ffffff;fill-opacity:1;stroke:none;stroke-width:0.21602701"
             d="M 310.298,63.9997 L 310.298,61.2505 L 296.302,61.2505 L 296.302,74.9133 L 310.423,74.9133 L 310.423,71.9558 L 299.884,71.9558 L 299.884,69.1649 L 305.966,69.1649 L 305.966,66.4573 L 299.884,66.4573 L 299.884,63.9997 L 310.298,63.9997 z"
             id="path3214" />
          <path
             style="fill:#ffffff;fill-opacity:1;stroke:none;stroke-width:0.21602701"
             d="M 334.749,74.9133 L 336.291,72.0392 L 344.33,72.0392 L 345.913,74.9133 L 349.787,74.9133 L 342.122,61.2505 L 338.832,61.2505 L 331.292,74.9133 L 334.749,74.9133 z M 340.373,64.333 L 340.373,64.333 L 342.955,69.1649 L 337.707,69.1649 L 340.373,64.333 z"
             id="path3216" />
          <path
             style="fill:#ffffff;fill-opacity:1;stroke:none;stroke-width:0.21602701"
             d="M 281.598,64.0414 C 281.598,63.0833 281.348,62.3752 280.806,61.917 C 280.306,61.5005 279.473,61.2505 278.39,61.2505 L 266.852,61.2505 L 266.852,74.9133 L 270.392,74.9133 L 270.392,69.7898 L 278.39,69.7898 C 279.473,69.7898 280.306,69.5815 280.806,69.1233 C 281.348,68.6651 281.598,67.9569 281.598,66.9988 L 281.598,64.0414 z M 278.14,64.8328 L 278.14,64.8328 L 278.14,66.249 C 278.14,66.5407 278.057,66.749 277.932,66.8739 C 277.765,66.9573 277.474,67.0405 277.016,67.0405 L 270.392,67.0405 L 270.392,64.0414 L 277.016,64.0414 C 277.474,64.0414 277.765,64.083 277.932,64.208 C 278.057,64.2913 278.14,64.4996 278.14,64.8328 z"
             id="path3218" />
          <path
             style="fill:#ffffff;fill-opacity:1;stroke:none;stroke-width:0.21602701"
             d="M 286.263,61.2505 L 286.263,74.9133 L 289.845,74.9133 L 289.845,61.2505 L 286.263,61.2505 z"
             id="path3220" />
          <path
             style="fill:#ffffff;fill-opacity:1;stroke:none;stroke-width:0.21602701"
             d="M 208.16,27.7601 C 208.16,25.0525 209.91,23.6778 213.367,23.6778 C 216.449,23.6778 217.949,24.8442 217.949,27.1352 C 217.949,27.3018 217.949,27.5101 217.907,27.7601 L 217.782,28.8431 L 220.823,28.8431 L 222.281,21.2618 C 219.657,20.3454 217.366,19.9289 215.491,19.9289 C 212.076,19.9289 208.993,21.012 206.286,23.2613 C 203.578,25.4273 202.245,27.9684 202.245,30.8842 C 202.245,33.0086 203.62,35.5495 206.411,38.5903 L 209.118,41.5894 C 211.243,43.9221 212.326,45.7132 212.326,46.9628 C 212.326,48.0459 211.826,48.9623 210.826,49.7121 C 209.826,50.5035 208.535,50.8784 207.035,50.8784 C 204.495,50.8784 201.829,49.9204 199.079,48.0043 L 194.581,52.9196 C 197.955,54.3358 200.954,55.0439 203.578,55.0439 C 207.327,55.0439 210.701,53.9609 213.7,51.7532 C 216.658,49.5871 218.116,47.0462 218.116,44.172 C 218.116,42.0892 216.741,39.465 213.95,36.341 L 211.451,33.6333 C 209.285,31.1341 208.16,29.1763 208.16,27.7601 z"
             id="path3222" />
          <path
             style="fill:#ffffff;fill-opacity:1;stroke:none;stroke-width:0.21602701"
             d="M 155.008,18.346 L 156.633,9.93175 C 153.925,8.47386 151.593,7.72407 149.593,7.72407 C 145.344,7.72407 141.512,9.22364 138.18,12.2228 C 134.847,15.3052 132.723,19.1375 131.848,23.8028 L 128.766,39.0902 C 128.016,42.964 127.1,45.5049 126.1,46.7545 C 125.1,48.0459 123.517,48.6707 121.31,48.6707 L 119.352,48.6707 L 114.77,54.2524 L 143.387,55.2522 C 145.844,55.2522 147.802,54.8773 149.302,54.1692 C 150.76,53.4194 152.967,51.7532 155.883,49.1706 L 156.383,45.9632 C 152.218,48.2125 147.552,49.2955 142.47,49.2955 L 127.016,49.0873 C 129.974,48.0875 132.223,46.463 133.723,44.172 C 135.222,41.8809 136.389,38.632 137.222,34.4248 L 139.971,20.6786 C 141.179,14.5137 143.512,11.473 146.927,11.473 C 150.343,11.473 152.051,13.0975 152.051,16.3882 C 152.051,16.7215 152.009,17.3463 151.926,18.346 L 155.008,18.346 z"
             id="path3224" />
          <path
             style="fill:#ffffff;fill-opacity:1;stroke:none;stroke-width:0.21602701"
             d="M 193.581,31.1341 C 193.581,27.9267 192.623,25.2191 190.748,23.1363 C 188.832,20.9703 186.375,19.9289 183.376,19.9289 C 178.127,19.9289 173.253,22.4282 168.755,27.4267 C 164.297,32.3837 162.048,37.8405 162.048,43.7554 C 162.048,46.9213 162.964,49.6288 164.839,51.7532 C 166.713,53.9609 169.004,55.0439 171.837,55.0439 C 177.377,55.0439 182.417,52.5862 186.874,47.6294 C 191.373,42.7141 193.581,37.2157 193.581,31.1341 z M 180.335,23.6778 L 180.335,23.6778 C 183.959,23.6778 185.791,26.7186 185.791,32.9252 C 185.791,37.7989 184.708,42.0892 182.542,45.7132 C 180.376,49.4205 177.96,51.2533 175.253,51.2533 C 171.67,51.2533 169.838,48.2125 169.838,42.1309 C 169.838,37.299 170.962,33.0086 173.17,29.2597 C 175.378,25.5523 177.752,23.6778 180.335,23.6778 z"
             id="path3226" />
          <path
             style="fill:#ffffff;fill-opacity:1;stroke:none;stroke-width:0.21602701"
             d="M 182.001,74.9133 L 185.458,74.9133 L 186.999,72.0392 L 195.039,72.0392 L 196.622,74.9133 L 200.496,74.9133 L 192.831,61.2505 L 189.582,61.2505 L 182.001,74.9133 z M 191.082,64.333 L 191.082,64.333 L 193.664,69.1649 L 188.416,69.1649 L 191.082,64.333 z"
             id="path3228" />
          <path
             style="fill:#ffffff;fill-opacity:1;stroke:none;stroke-width:0.21602701"
             d="M 170.712,71.9558 L 170.712,61.2505 L 167.13,61.2505 L 167.13,74.9133 L 180.585,74.9133 L 180.585,71.9558 L 170.712,71.9558 z"
             id="path3230" />
          <path
             style="fill:#ffffff;fill-opacity:1;stroke:none;stroke-width:0.21602701"
             d="M 146.969,69.1649 L 146.969,66.4573 L 140.887,66.4573 L 140.887,63.9997 L 151.301,63.9997 L 151.301,61.2505 L 137.305,61.2505 L 137.305,74.9133 L 151.426,74.9133 L 151.426,71.9558 L 140.887,71.9558 L 140.887,69.1649 L 146.969,69.1649 z"
             id="path3232" />
          <path
             style="fill:#ffffff;fill-opacity:1;stroke:none;stroke-width:0.21602701"
             d="M 245.649,66.5407 C 245.649,66.4573 245.649,66.3741 245.649,66.2907 C 245.774,66.4573 245.858,66.5824 246.024,66.749 L 250.898,73.3305 L 251.814,73.3305 L 256.813,66.7073 C 256.855,66.5824 256.938,66.499 257.021,66.3741 C 257.021,66.4573 257.021,66.4573 257.021,66.5407 L 257.021,74.9133 L 260.395,74.9133 L 260.395,61.2505 L 257.521,61.2505 L 251.606,69.2066 L 245.483,61.2505 L 242.65,61.2505 L 242.65,74.9133 L 245.649,74.9133 L 245.649,66.5407 z"
             id="path3234" />
          <path
             style="fill:#ffffff;fill-opacity:1;stroke:none;stroke-width:0.21602701"
             d="M 214.783,61.2505 L 214.783,74.9133 L 228.238,74.9133 L 228.238,71.9558 L 218.366,71.9558 L 218.366,61.2505 L 214.783,61.2505 z"
             id="path3236" />
          <path
             style="fill:#ffffff;fill-opacity:1;stroke:none;stroke-width:0.21602701"
             d="M 236.236,61.2505 L 232.611,61.2505 L 232.611,74.9133 L 236.236,74.9133 L 236.236,61.2505 z"
             id="path3238" />
          <path
             style="fill:#ffffff;fill-opacity:1;stroke:none;stroke-width:0.21602701"
             d="M 90.9432,15.7635 C 90.8181,15.9717 90.7349,16.1799 90.6515,16.3466 C 90.4017,16.8465 90.235,17.3463 90.1934,17.8462 C 90.0684,18.6376 90.11,19.3874 90.36,20.1788 C 90.5683,21.012 90.9015,21.7201 91.4013,22.3449 C 90.6099,27.885 89.6935,31.9672 88.6105,34.5497 C 87.6107,36.9658 86.5277,37.9655 85.3613,37.6323 C 82.7371,36.7159 79.613,29.7595 75.989,16.8048 C 75.9474,16.7215 75.9474,16.6799 75.9057,16.6799 L 76.1557,16.4716 C 76.1557,16.4716 76.1973,16.4716 76.1973,16.5132 C 76.2806,16.5548 76.3639,16.5548 76.4056,16.5548 C 76.4889,16.5548 76.5306,16.5132 76.6138,16.4299 C 76.7805,16.1799 76.9471,15.9301 77.1137,15.6801 L 77.1137,15.6384 C 77.7802,14.5137 77.9885,13.3058 77.8634,12.0978 C 77.8219,11.8062 77.7385,11.5146 77.6969,11.2647 C 77.2804,9.68178 76.3639,8.51542 75.031,7.72407 C 73.7813,7.05752 72.49,6.80755 71.1154,7.05752 C 70.9904,7.05752 70.8655,7.09921 70.7405,7.14088 C 70.6989,7.14088 70.6572,7.14088 70.6155,7.18245 C 69.0743,7.59903 67.908,8.47386 67.1165,9.89007 C 66.4084,11.0564 66.1585,12.306 66.3668,13.639 C 66.4084,13.8056 66.45,14.0139 66.5334,14.2639 C 66.8666,15.5968 67.5747,16.6382 68.6161,17.388 L 68.6578,17.388 C 68.6994,17.4296 68.6994,17.4296 68.7411,17.4296 C 67.4081,28.3016 65.5753,34.6331 63.201,36.4659 C 62.7011,36.7991 62.1179,36.7159 61.4515,36.1744 C 60.7017,35.5078 59.8685,34.2999 58.9106,32.592 C 56.9944,29.0514 54.745,23.3029 52.1625,15.3886 C 52.454,15.0552 52.704,14.722 52.9538,14.3888 C 53.4953,13.5141 53.9119,12.5977 54.1202,11.5563 L 54.1202,11.5979 C 54.1618,11.3896 54.2036,11.1814 54.2451,10.9731 C 54.4951,9.51518 54.2868,8.05728 53.7036,6.68263 C 52.0791,2.80876 49.1633,0.975971 44.9561,1.14257 C 43.4565,1.30918 42.1236,1.76732 41.0406,2.55879 C 40.624,2.80876 40.2908,3.14197 39.9576,3.47519 L 39.6659,3.76684 C 39.6659,3.76684 39.6242,3.76684 39.6242,3.8084 L 39.3744,4.10005 C 39.1244,4.35002 38.9161,4.64155 38.7078,4.93308 C 38.458,5.34966 38.2497,5.72455 38.0831,6.14113 L 38.0414,6.18281 C 37.8331,6.68263 37.6665,7.22413 37.5831,7.76563 C 37.5416,7.76563 37.5416,7.80731 37.5416,7.80731 C 37.5416,7.89067 37.4999,7.97392 37.4999,8.05728 C 37.2083,9.30689 37.2083,10.5149 37.5416,11.7229 C 37.5416,11.8479 37.5831,12.0145 37.6665,12.1811 C 37.7914,12.5977 37.958,13.0142 38.1663,13.4724 C 38.458,14.0556 38.7495,14.5554 39.1244,15.0137 C 39.9576,16.055 40.9989,16.8465 42.3318,17.4296 C 43.998,25.6773 44.9144,31.8006 45.0395,35.8411 C 45.081,37.7989 44.9144,39.2984 44.5812,40.2148 C 44.2897,41.048 43.8314,41.4228 43.2066,41.3811 C 40.2491,41.0063 35.792,36.5076 29.8354,27.885 C 29.8354,27.8433 29.8354,27.8433 29.877,27.8433 L 29.877,27.8016 C 30.3769,26.5937 30.5018,25.3857 30.1686,24.0944 C 30.1686,24.0944 30.1686,24.0527 30.1686,24.0111 C 30.0853,23.8028 30.002,23.5946 29.9603,23.3863 C 29.4605,22.1367 28.6274,21.1786 27.461,20.512 C 26.0448,19.7207 24.5869,19.5124 23.0456,19.9289 C 23.004,19.9289 22.9622,19.9289 22.9207,19.9289 C 22.7957,19.9705 22.6707,20.0122 22.5458,20.0956 C 21.2544,20.5537 20.2548,21.3869 19.5466,22.6365 C 18.7135,23.9695 18.5469,25.4273 18.9635,27.0103 C 19.0467,27.2601 19.1301,27.5518 19.255,27.8016 C 19.7133,28.9263 20.5047,29.8428 21.6294,30.5093 C 21.8793,30.6342 22.1292,30.7592 22.3792,30.8425 C 25.6282,43.7138 26.3363,51.3783 24.5452,53.8775 C 23.712,55.0022 22.2542,54.919 20.1714,53.6694 C 17.9637,52.3364 15.1311,49.6704 11.6322,45.7132 C 11.5073,45.5466 11.3822,45.4217 11.2573,45.2966 C 11.3822,45.0468 11.5488,44.8385 11.6739,44.5885 L 11.6322,44.5885 C 12.257,43.5055 12.5069,42.3392 12.382,41.0897 C 12.382,40.798 12.2986,40.548 12.1737,40.2982 C 12.0488,39.9233 11.8405,39.5901 11.6739,39.2984 C 10.6324,37.7572 9.13284,36.9658 7.13345,36.8825 C 5.2173,36.7575 3.67604,37.4657 2.50978,38.8819 C 1.09346,40.6314 0.760254,42.5058 1.55171,44.5885 C 2.3015,46.5047 3.71773,47.7126 5.7588,48.2125 L 17.0473,71.7475 C 17.089,71.7892 17.1307,71.8309 17.1722,71.8725 C 17.2139,71.8725 17.2973,71.9141 17.3388,71.9141 C 17.3805,71.8725 17.3805,71.8725 17.3805,71.8725 L 17.4639,71.8725 C 17.5054,71.8725 17.5471,71.8309 17.5471,71.7475 C 17.5888,71.7058 17.6305,71.6226 17.6722,71.5392 C 18.172,70.7478 19.1301,69.8314 20.5463,68.8317 C 22.5041,67.4571 25.2533,65.9158 28.919,64.208 C 30.5435,63.4166 32.2931,62.6667 34.1675,61.917 L 34.2091,61.917 C 35.0423,61.5421 35.917,61.1672 36.8334,60.8339 C 41.3321,59.0428 46.2891,57.3349 51.7042,55.7104 L 51.7459,55.7104 C 51.8708,55.6688 52.0374,55.6271 52.204,55.5854 L 52.2457,55.5854 C 52.4123,55.5438 52.5789,55.4605 52.7872,55.4188 C 52.9955,55.3355 53.2455,55.2939 53.4953,55.2105 L 54.8283,54.8356 C 54.9533,54.8356 55.0782,54.7524 55.2032,54.7107 C 55.7864,54.5857 56.2446,54.4607 56.7028,54.3358 C 58.4106,53.836 59.3687,53.586 59.577,53.5443 C 60.785,53.2111 61.9513,52.9196 63.1176,52.6279 L 63.1593,52.6279 C 63.3259,52.5862 63.4925,52.5447 63.6175,52.5447 L 63.6591,52.5447 C 69.1576,51.2117 74.3228,50.2119 79.1132,49.5038 C 80.1128,49.3372 81.0709,49.2122 81.9873,49.0873 C 83.9451,48.8373 85.8613,48.629 87.7357,48.4624 C 91.6513,48.1292 94.8171,48.0875 97.233,48.2958 C 98.6077,48.4207 99.6907,48.629 100.565,48.9623 L 100.565,49.0039 C 100.732,49.0456 100.899,49.1289 101.065,49.2539 C 101.149,49.2539 101.232,49.2955 101.274,49.3788 C 101.315,49.3788 101.357,49.3788 101.44,49.3788 L 101.482,49.3788 C 101.565,49.3788 101.607,49.3372 101.69,49.2539 C 101.69,49.2122 101.69,49.1289 101.69,49.0873 L 99.7324,23.0531 C 100.191,22.6782 100.565,22.2199 100.899,21.6367 C 100.94,21.6367 100.94,21.5952 100.94,21.5952 C 101.732,20.2205 101.94,18.7626 101.523,17.1797 C 101.357,16.6382 101.149,16.1384 100.899,15.7218 C 100.399,14.8471 99.7324,14.1805 98.816,13.6807 C 97.733,13.0142 96.5666,12.7643 95.3169,12.9309 C 95.0254,12.9726 94.7337,13.0142 94.4422,13.0975 C 92.8592,13.5141 91.7345,14.3888 90.9432,15.7635 z M 95.9001,14.5971 L 95.9001,14.5971 C 96.0667,14.5971 96.1917,14.5971 96.3166,14.6388 C 98.8992,15.3469 100.316,16.8881 100.524,19.3041 C 100.565,19.5124 100.482,19.7207 100.357,19.8873 C 100.232,20.0539 100.066,20.1371 99.8573,20.2205 C 99.649,20.2205 99.4824,20.2205 99.2741,20.1371 C 99.0658,20.0122 98.9409,19.8456 98.8575,19.679 C 98.3994,18.3877 97.5247,17.7212 96.2334,17.7212 C 96.0251,17.6796 95.8168,17.6379 95.6918,17.5129 C 95.1503,17.0547 94.8587,16.5965 94.8587,16.1799 C 94.7337,15.6801 94.9837,15.1803 95.5669,14.7637 C 95.6918,14.6803 95.7751,14.6388 95.9001,14.5971 z M 71.4487,8.80707 L 71.4487,8.80707 C 71.5319,8.72371 71.657,8.68203 71.7819,8.68203 C 71.9068,8.64046 72.0319,8.64046 72.1568,8.68203 C 74.7394,9.39025 76.1557,10.9314 76.4056,13.3058 C 76.4056,13.5141 76.3639,13.7224 76.239,13.889 C 76.114,14.0973 75.9474,14.1805 75.7391,14.2639 C 75.5308,14.3054 75.3226,14.2639 75.1559,14.1805 C 74.9477,14.0556 74.7811,13.889 74.7394,13.6807 C 74.2812,12.431 73.4064,11.7645 72.1151,11.7645 C 71.9068,11.7229 71.6985,11.6813 71.5319,11.5563 C 71.0321,11.0981 70.7405,10.6399 70.7405,10.2233 C 70.6155,9.68178 70.8655,9.22364 71.4487,8.80707 z M 6.30031,38.632 L 6.30031,38.632 C 6.42535,38.5903 6.55026,38.5903 6.6752,38.632 C 9.21622,39.3818 10.6324,40.9229 10.8824,43.2972 C 10.9241,43.5055 10.8407,43.7138 10.7158,43.8804 C 10.5907,44.047 10.4241,44.172 10.2575,44.2136 C 10.0077,44.2553 9.84096,44.2553 9.6328,44.1303 C 9.46606,44.047 9.29945,43.8804 9.2579,43.6721 C 8.79964,42.3808 7.92493,41.756 6.59195,41.756 C 6.38367,41.7143 6.21706,41.6311 6.09203,41.506 C 5.50896,41.048 5.25897,40.5897 5.25897,40.2148 C 5.13406,39.6733 5.34222,39.2152 5.92542,38.7986 C 6.05046,38.7153 6.17537,38.6736 6.30031,38.632 z M 28.5024,24.8025 L 28.5024,24.8025 L 28.5024,24.7609 C 28.669,25.2191 28.8356,25.7606 28.8773,26.3437 C 28.919,26.552 28.8356,26.7186 28.7107,26.8852 C 28.5857,27.0935 28.4191,27.2186 28.2108,27.2186 C 28.0025,27.3018 27.7943,27.2601 27.6277,27.1769 C 27.461,27.0519 27.2944,26.8852 27.2528,26.7186 C 27.0861,26.3021 26.9195,25.9688 26.7112,25.6773 L 26.7112,25.7606 C 26.4613,25.3857 26.1697,25.1358 25.7948,25.0108 C 25.4199,24.8442 25.0033,24.7609 24.5869,24.7192 C 24.3786,24.7192 24.1703,24.6776 24.0454,24.511 C 23.5039,24.0944 23.2122,23.6362 23.2122,23.2613 C 23.1289,22.7198 23.3371,22.2199 23.9203,21.8033 C 24.0454,21.7201 24.1286,21.6784 24.2537,21.6784 C 24.4203,21.6367 24.5452,21.6367 24.6701,21.6784 C 25.2533,21.8033 25.7533,22.0533 26.2531,22.3449 L 26.2531,22.3033 C 27.3361,22.8864 28.0859,23.7195 28.5024,24.8025 z M 52.9538,10.015 L 52.9538,10.015 C 52.8289,10.1817 52.6623,10.3483 52.4957,10.4316 C 52.2874,10.5149 52.0791,10.5149 51.9125,10.4316 C 51.7042,10.3899 51.5376,10.2233 51.4127,10.0567 C 50.0797,7.68238 48.0802,6.68263 45.4976,7.09921 C 45.2893,7.09921 45.081,7.05752 44.9144,6.97428 C 44.0397,6.43278 43.5399,5.89116 43.4149,5.30798 C 43.165,4.64155 43.3732,3.97512 44.0397,3.2669 C 44.123,3.18365 44.2063,3.10029 44.3313,3.05861 C 44.4563,3.01704 44.5812,3.01704 44.7478,3.01704 C 49.2049,3.4335 51.9542,5.55795 52.9955,9.39025 C 53.0372,9.59854 53.0372,9.80683 52.9538,10.015 z"
             id="path3240" />
          <path
             style="fill:#ffffff;fill-opacity:1;stroke:none;stroke-width:0.21602701"
             d="M 46.414,64.4996 C 44.1646,65.2911 41.9153,66.1241 39.6659,66.9573 C 37.9997,67.6654 36.2919,68.3318 34.6257,69.04 C 33.0012,69.7898 31.335,70.5396 29.7937,71.3726 C 28.4191,72.0807 27.1278,72.8305 25.7948,73.5803 L 25.7948,73.5388 C 23.9203,74.5384 22.3792,75.8714 21.2128,77.5792 C 20.9212,77.9541 20.8379,78.4124 21.0045,78.8705 C 21.2961,79.9535 21.9626,80.6618 23.004,80.9533 C 24.1286,81.3282 25.2533,81.5365 26.4197,81.5781 C 28.8773,81.7448 31.3766,81.7448 33.9176,81.5365 C 36.0836,81.3699 38.3329,81.1616 40.624,80.8284 C 42.4985,80.495 44.4146,80.2035 46.3307,79.912 C 48.4135,79.5371 50.5378,79.1205 52.6623,78.7873 C 55.0366,78.2457 57.411,77.7042 59.7436,77.0794 C 62.2012,76.3712 64.6589,75.7048 67.1582,74.9967 C 69.5325,74.3718 71.9068,73.7054 74.2395,72.9971 C 76.6555,72.1641 79.0298,71.331 81.4042,70.4979 C 83.7368,69.5815 86.1111,68.6235 88.4022,67.6237 C 90.36,66.7073 92.3177,65.8326 94.3172,64.8745 C 96.4832,63.7498 98.5243,62.4169 100.357,60.8339 L 100.399,60.8339 C 100.565,60.709 100.732,60.5841 100.857,60.4174 C 101.232,60.0426 101.523,59.626 101.815,59.1677 L 101.815,59.126 C 102.107,58.5845 102.148,57.9598 101.94,57.3766 C 101.732,56.7518 101.357,56.3352 100.774,56.0436 L 100.732,56.0436 C 99.5658,55.4605 98.2745,55.1688 96.8998,55.0856 C 94.3172,54.9606 91.7345,54.9606 89.2353,55.2105 C 86.9443,55.2939 84.6532,55.5021 82.4039,55.877 C 80.3628,56.1686 78.3217,56.5018 76.2806,56.7934 C 73.823,57.2933 71.3653,57.7515 68.9493,58.2513 C 66.3251,58.7928 63.7425,59.4177 61.2432,60.0841 C 59.7853,60.4174 58.2857,60.8339 56.7444,61.2922 L 55.4115,61.6254 C 54.87,61.8337 54.3285,62.0003 53.8286,62.0836 L 53.787,62.0836 C 51.3293,62.875 48.8717,63.6665 46.414,64.4996 z"
             id="path3242" />
          <path
             style="fill:#ffffff;fill-opacity:1;stroke:none;stroke-width:0.21602701"
             d="M 115.145,61.2505 L 115.145,74.9133 L 123.101,74.9133 C 124.475,74.9133 125.558,74.8716 126.433,74.6634 C 127.308,74.4967 128.058,74.2469 128.641,73.872 C 129.641,73.2888 130.39,72.4556 130.89,71.456 C 131.432,70.4146 131.682,69.2899 131.682,67.9986 C 131.682,65.8741 131.015,64.208 129.641,63 C 128.308,61.8337 126.392,61.2505 123.892,61.2505 L 115.145,61.2505 z M 118.769,71.9558 L 118.769,71.9558 L 118.769,64.1247 L 123.934,64.1247 C 125.267,64.1247 126.267,64.4162 126.975,65.0828 C 127.683,65.7075 128.016,66.7073 128.016,67.9569 C 128.016,69.3732 127.599,70.4146 126.766,70.9977 C 125.933,71.6226 124.517,71.9558 122.434,71.9558 L 118.769,71.9558 z"
             id="path3244" />
        </g>
      </g>
    </g>
  </g>
  <text
     xml:space="preserve"
     style="font-size:40px;font-style:normal;font-weight:normal;opacity:0.42916667;fill:#000000;fill-opacity:1;stroke:none;stroke-width:1px;stroke-linecap:butt;stroke-linejoin:miter;stroke-opacity:1;font-family:Bitstream Vera Sans"
     x="252.04761"
     y="545.51807"
     id="text3218"
     inkscape:export-xdpi="90"
     inkscape:export-ydpi="90"><tspan
       sodipodi:role="line"
       id="tspan3222"
       style="font-size:10px;fill:#ffffff"
       x="252.04761"
       y="545.51807">l o s r e y e s @ s r t k . c o m</tspan></text>
</svg>
